<svg width="19" height="24" viewBox="0 0 19 24" fill="none" xmlns="http://www.w3.org/2000/svg">
<path d="M16.3333 23.3333C16.9522 23.3333 17.5457 23.0875 17.9832 22.6499C18.4208 22.2123 18.6667 21.6188 18.6667 21V7L11.6667 0H2.33333C1.71449 0 1.121 0.245833 0.683417 0.683417C0.245833 1.121 0 1.71449 0 2.33333V21C0 21.6188 0.245833 22.2123 0.683417 22.6499C1.121 23.0875 1.71449 23.3333 2.33333 23.3333H16.3333ZM10.5 2.33333L16.3333 8.16667H10.5V2.33333ZM3.5 7H7V9.33333H3.5V7ZM3.5 11.6667H15.1667V14H3.5V11.6667ZM3.5 16.3333H15.1667V18.6667H3.5V16.3333Z" fill="white"/>
</svg>
