<svg width="23" height="23" viewBox="0 0 23 23" fill="none" xmlns="http://www.w3.org/2000/svg">
<path d="M11.375 0C9.12524 0 6.926 0.667132 5.05539 1.91703C3.18478 3.16693 1.72682 4.94347 0.865875 7.02198C0.00492861 9.10049 -0.220334 11.3876 0.218573 13.5942C0.657479 15.8007 1.74084 17.8275 3.33167 19.4183C4.92249 21.0092 6.94932 22.0925 9.15585 22.5314C11.3624 22.9703 13.6495 22.7451 15.728 21.8841C17.8065 21.0232 19.5831 19.5652 20.833 17.6946C22.0829 15.824 22.75 13.6248 22.75 11.375C22.7468 8.35914 21.5474 5.46771 19.4148 3.33518C17.2823 1.20264 14.3909 0.0031848 11.375 0ZM15.5663 7.875H16.625C16.8571 7.875 17.0796 7.96719 17.2437 8.13128C17.4078 8.29538 17.5 8.51794 17.5 8.75C17.5 8.98206 17.4078 9.20462 17.2437 9.36872C17.0796 9.53281 16.8571 9.625 16.625 9.625H15.7292C15.6186 10.8199 15.0662 11.9306 14.18 12.7398C13.2938 13.5489 12.1375 13.9983 10.9375 14H9.55063L15.412 18.5598C15.5072 18.6287 15.5874 18.7161 15.6481 18.8166C15.7087 18.9172 15.7485 19.029 15.765 19.1452C15.7816 19.2615 15.7746 19.3799 15.7444 19.4934C15.7142 19.6069 15.6615 19.7132 15.5893 19.8058C15.5172 19.8985 15.4272 19.9757 15.3246 20.0329C15.222 20.0901 15.1089 20.126 14.9922 20.1385C14.8754 20.151 14.7573 20.1399 14.6449 20.1059C14.5325 20.0718 14.4281 20.0154 14.338 19.9402L6.46297 13.8152C6.31927 13.7032 6.21411 13.5491 6.16217 13.3745C6.11022 13.1998 6.11408 13.0134 6.17321 12.841C6.23234 12.6687 6.34379 12.5191 6.492 12.4132C6.64022 12.3072 6.81781 12.2502 7.00001 12.25H10.9375C11.6739 12.2499 12.3856 11.9845 12.9422 11.5024C13.4988 11.0203 13.8631 10.3538 13.9683 9.625H7.00001C6.76794 9.625 6.54538 9.53281 6.38129 9.36872C6.21719 9.20462 6.12501 8.98206 6.12501 8.75C6.12501 8.51794 6.21719 8.29538 6.38129 8.13128C6.54538 7.96719 6.76794 7.875 7.00001 7.875H13.7036C13.4553 7.35152 13.0636 6.90922 12.574 6.59946C12.0843 6.28969 11.5169 6.12517 10.9375 6.125H7.00001C6.76794 6.125 6.54538 6.03281 6.38129 5.86872C6.21719 5.70462 6.12501 5.48206 6.12501 5.25C6.12501 5.01794 6.21719 4.79538 6.38129 4.63128C6.54538 4.46719 6.76794 4.375 7.00001 4.375H16.625C16.8571 4.375 17.0796 4.46719 17.2437 4.63128C17.4078 4.79538 17.5 5.01794 17.5 5.25C17.5 5.48206 17.4078 5.70462 17.2437 5.86872C17.0796 6.03281 16.8571 6.125 16.625 6.125H14.6475C15.0718 6.63831 15.3847 7.23426 15.5663 7.875Z" fill="white"/>
</svg>
