<svg width="32" height="32" viewBox="0 0 32 32" fill="none" xmlns="http://www.w3.org/2000/svg">
<path d="M15.9994 4C15.0548 3.9986 14.1401 4.33155 13.4174 4.9399C12.6948 5.54825 12.2107 6.39273 12.051 7.32377C11.8913 8.25481 12.0663 9.21233 12.5449 10.0267C13.0235 10.8411 13.7749 11.4599 14.6661 11.7733V14.6667H10.6661C9.60519 14.6667 8.58777 15.0881 7.83763 15.8382C7.08748 16.5884 6.66606 17.6058 6.66606 18.6667V20.2267C5.77606 20.5412 5.02593 21.1603 4.54824 21.9744C4.07055 22.7886 3.89607 23.7454 4.05564 24.6757C4.21521 25.6061 4.69855 26.4501 5.42023 27.0585C6.1419 27.6669 7.05545 28.0007 7.99939 28.0007C8.94333 28.0007 9.85687 27.6669 10.5786 27.0585C11.3002 26.4501 11.7836 25.6061 11.9431 24.6757C12.1027 23.7454 11.9282 22.7886 11.4505 21.9744C10.9728 21.1603 10.2227 20.5412 9.33272 20.2267V18.6667C9.33272 18.313 9.4732 17.9739 9.72325 17.7239C9.97329 17.4738 10.3124 17.3333 10.6661 17.3333H21.3327C21.6863 17.3333 22.0255 17.4738 22.2755 17.7239C22.5256 17.9739 22.6661 18.313 22.6661 18.6667V20.2267C21.7761 20.5412 21.0259 21.1603 20.5482 21.9744C20.0706 22.7886 19.8961 23.7454 20.0556 24.6757C20.2152 25.6061 20.6985 26.4501 21.4202 27.0585C22.1419 27.6669 23.0555 28.0007 23.9994 28.0007C24.9433 28.0007 25.8569 27.6669 26.5786 27.0585C27.3002 26.4501 27.7836 25.6061 27.9431 24.6757C28.1027 23.7454 27.9282 22.7886 27.4505 21.9744C26.9728 21.1603 26.2227 20.5412 25.3327 20.2267V18.6667C25.3327 17.6058 24.9113 16.5884 24.1611 15.8382C23.411 15.0881 22.3936 14.6667 21.3327 14.6667H17.3327V11.7733C18.2223 11.4585 18.9719 10.8394 19.4492 10.0254C19.9265 9.2114 20.1008 8.25491 19.9413 7.32488C19.7818 6.39485 19.2987 5.55112 18.5774 4.94273C17.8561 4.33434 16.943 4.00044 15.9994 4Z" fill="#25343F"/>
</svg>
