<svg width="32" height="32" viewBox="0 0 32 32" fill="none" xmlns="http://www.w3.org/2000/svg">
<path d="M6.15467 25.3337C5.54044 25.3337 5.028 25.1283 4.61733 24.7177C4.20667 24.307 4.00089 23.7941 4 23.179V8.82166C4 8.20744 4.20578 7.69499 4.61733 7.28433C5.02889 6.87366 5.54089 6.66788 6.15333 6.66699H25.8467C26.46 6.66699 26.972 6.87277 27.3827 7.28433C27.7933 7.69588 27.9991 8.20833 28 8.82166V23.1803C28 23.7937 27.7942 24.3061 27.3827 24.7177C26.9711 25.1292 26.4591 25.3345 25.8467 25.3337H6.15467ZM16 16.155L26.6667 9.18033L26.256 8.00033L16 14.667L5.744 8.00033L5.33333 9.18033L16 16.155Z" fill="#25343F"/>
</svg>
