<svg width="84" height="85" viewBox="0 0 84 85" fill="none" xmlns="http://www.w3.org/2000/svg">
<path d="M42.3317 0.0258742C43.0057 0.228249 43.4324 0.480567 43.9986 0.893695C45.2259 1.74331 46.503 2.39951 47.8506 3.03702C48.0984 3.15432 48.3461 3.27163 48.6014 3.39249C52.9445 5.41153 57.4033 6.79234 62.0544 7.90064C62.4674 7.99948 62.4674 7.99948 62.8889 8.10031C67.718 9.35134 67.718 9.35134 72.6491 9.9762C74.234 10.1073 75.1868 10.5718 76.2736 11.773C76.9634 12.781 77.019 13.6425 77.111 14.8359C77.1273 15.0408 77.1435 15.2456 77.1602 15.4566C77.843 24.3121 78.2363 33.2856 76.9242 42.1009C76.8857 42.3629 76.8473 42.6248 76.8077 42.8947C76.4209 45.456 75.9907 48.0068 75.1942 50.4767C74.9247 51.2816 74.9247 51.2816 74.7431 52.1728C74.3222 53.8007 73.8419 54.8053 72.4122 55.6866C71.5403 56.1636 70.6494 56.5773 69.7371 56.9706C69.5405 57.0566 69.3438 57.1426 69.1413 57.2312C67.9453 57.7492 66.7403 58.2372 65.524 58.7054C65.8499 57.6578 66.2511 56.6674 66.6927 55.6655C68.8408 50.7655 70.1562 45.6255 70.8988 40.3351C70.9284 40.1256 70.958 39.9161 70.9885 39.7002C71.4376 36.2765 71.515 32.847 71.5029 29.3997C71.5024 29.1164 71.5024 29.1164 71.502 28.8273C71.4968 26.0767 71.4437 23.3358 71.2602 20.5904C71.221 19.9974 71.1863 19.4042 71.1525 18.8109C71.0957 17.8175 71.0367 16.8243 70.9763 15.8311C70.7691 15.8219 70.562 15.8126 70.3485 15.8031C68.1015 15.6761 65.9699 15.335 63.7737 14.8398C63.6045 14.8023 63.4352 14.7648 63.2608 14.7261C56.6438 13.2509 50.0253 11.2046 43.9936 8.07538C42.9648 7.54922 42.9648 7.54922 41.8378 7.4137C41.012 7.74215 40.2186 8.12318 39.4244 8.52021C32.8096 11.7138 25.7041 13.7378 18.5219 15.1667C17.3324 15.4089 16.148 15.6741 14.9635 15.9397C14.2232 16.079 14.2232 16.079 13.2318 16.079C12.4518 27.5574 11.6416 39.7859 15.7101 50.7749C15.792 50.9963 15.8739 51.2177 15.9583 51.4459C16.9802 54.1788 18.0223 56.8862 19.4276 59.4488C17.8237 59.1556 16.4137 58.6748 14.9357 57.9929C14.6534 57.8668 14.6534 57.8668 14.3655 57.7382C13.9942 57.5702 13.6248 57.3978 13.2577 57.2209C12.9254 57.0614 12.5889 56.9099 12.2481 56.7696C11.29 56.3274 10.8623 55.8517 10.4505 54.9163C10.291 54.4782 10.1394 54.0371 9.99455 53.5939C9.87155 53.2347 9.87155 53.2347 9.74606 52.8682C8.12967 47.9855 7.25362 43.0001 6.78825 37.8878C6.76453 37.6425 6.74081 37.3973 6.71637 37.1446C6.51472 34.8609 6.50161 32.5885 6.50944 30.2981C6.50982 30.098 6.51021 29.8979 6.5106 29.6918C6.52102 25.0433 6.62895 20.404 7.0051 15.7692C7.02151 15.5492 7.03793 15.3293 7.05484 15.1027C7.19777 13.5336 7.44526 12.1849 8.616 11.045C9.71614 10.3377 10.7481 10.0571 12.0353 9.8639C12.3349 9.81732 12.6344 9.77074 12.9431 9.72275C13.2633 9.67349 13.5835 9.62423 13.9134 9.57348C22.9289 8.13383 33.5207 5.91337 41.0275 0.385455C41.7323 -0.0298508 41.7323 -0.0298508 42.3317 0.0258742Z" fill="white"/>
<path d="M78.6589 42.1016C81.2208 43.5746 82.8965 46.0385 83.8633 48.7929C84.3234 51.6692 83.6055 54.2784 81.9581 56.646C79.6128 59.6589 76.8418 61.67 73.4699 63.4148C73.2223 63.543 72.9746 63.6713 72.7195 63.8035C70.4647 64.9482 68.1803 65.8721 65.7717 66.6365C65.5962 66.6929 65.4206 66.7492 65.2397 66.8073C57.3103 69.3012 48.8495 70.1625 40.5705 70.1681C40.3471 70.1682 40.1238 70.1684 39.8936 70.1686C36.0817 70.1641 32.368 69.9621 28.5972 69.3626C28.3183 69.3188 28.0394 69.2749 27.752 69.2298C19.7889 67.9419 11.4731 65.8083 5.05331 60.6887C4.85748 60.5366 4.66164 60.3845 4.45987 60.2278C2.02208 58.2178 0.362642 55.6442 0.0115145 52.4881C-0.14209 49.2586 1.25593 46.7377 3.3185 44.332C3.95089 43.7136 4.60362 43.1408 5.30114 42.5972C5.54897 43.3407 5.54897 43.3407 5.25661 44.029C5.11796 44.2875 4.97931 44.5459 4.83646 44.8122C3.78703 46.7817 3.39597 48.599 4.03875 50.8017C5.59637 54.7406 8.34942 56.7939 11.9926 58.706C12.4047 58.9245 12.4047 58.9245 12.8251 59.1475C16.9187 61.185 21.3376 62.3846 25.8091 63.2599C26.1076 63.319 26.4062 63.3781 26.7138 63.439C31.1189 64.2551 35.5222 64.4892 39.9957 64.4707C40.7568 64.468 41.5176 64.4707 42.2787 64.4738C53.8342 64.4827 68.4113 62.5932 77.1612 54.28C79.1436 52.1897 80.0996 49.9803 80.0611 47.1176C79.9865 45.7174 79.6162 44.5973 78.9299 43.3659C78.6589 42.845 78.6589 42.845 78.6589 42.1016Z" fill="white"/>
<path d="M59.3276 30.9492C59.8183 30.9492 60.309 30.9492 60.8146 30.9492C60.8146 40.5996 60.8146 50.2501 60.8146 60.1929C52.9037 61.9509 52.9037 61.9509 50.9014 61.9277C50.8264 59.1766 50.7693 56.4258 50.7345 53.6738C50.7177 52.3956 50.6951 51.1181 50.6583 49.8403C50.623 48.6045 50.604 47.3694 50.5957 46.1332C50.5898 45.6642 50.5783 45.1952 50.5607 44.7265C50.4783 42.4286 50.4611 40.6292 52.033 38.8325C52.585 38.2682 53.1568 37.7372 53.7548 37.2222C54.2173 36.814 54.6135 36.3653 55.0061 35.8903C55.915 34.8345 56.8669 33.8189 57.8194 32.8025C58.3762 32.2047 58.8733 31.6307 59.3276 30.9492Z" fill="white"/>
<path d="M63.7889 69.6115C63.2473 70.1955 62.705 70.7787 62.1625 71.3618C62.0116 71.5246 61.8606 71.6873 61.7051 71.855C56.912 77.0031 51.2662 81.032 44.9054 84.0211C44.4651 84.2301 44.0316 84.4533 43.5985 84.6768C41.932 85.2482 40.6197 84.7554 39.0938 84.0404C38.9012 83.9456 38.7086 83.8509 38.5102 83.7532C38.2029 83.6041 38.2029 83.6041 37.8894 83.452C34.3545 81.701 31.2058 79.4647 28.1014 77.0464C27.7429 76.7723 27.7429 76.7723 27.3772 76.4926C25.9568 75.3748 24.6602 74.1501 23.3771 72.8798C23.2145 72.7194 23.0518 72.5591 22.8843 72.394C22.7322 72.2409 22.5802 72.0878 22.4235 71.9301C22.2877 71.7937 22.1519 71.6574 22.012 71.5169C21.6359 71.0727 21.4005 70.6362 21.1621 70.1072C22.9724 70.3116 24.7493 70.6419 26.5379 70.9843C27.6686 71.1956 28.7648 71.3637 29.9136 71.4325C31.0827 71.5398 31.6979 71.9119 32.5933 72.6939C32.8663 72.9213 33.1407 73.1471 33.4161 73.3715C33.5584 73.4877 33.7006 73.6038 33.8472 73.7234C35.2275 74.7941 36.763 75.6597 38.2624 76.5507C38.4148 76.6434 38.5672 76.736 38.7243 76.8314C39.1506 77.0891 39.5816 77.339 40.0127 77.5885C40.2558 77.73 40.4989 77.8715 40.7494 78.0173C41.8368 78.4142 42.6459 78.2816 43.7067 77.8301C44.2474 77.5603 44.7708 77.2702 45.2946 76.9689C45.4865 76.8604 45.6784 76.7519 45.8762 76.6401C48.2169 75.2889 50.6409 73.7876 52.5968 71.9097C53.667 71.1399 54.6497 71.0188 55.9358 70.8352C56.4219 70.7574 56.9079 70.6787 57.3937 70.599C57.635 70.5598 57.8763 70.5207 58.1249 70.4804C59.3507 70.2631 60.5549 69.96 61.7586 69.6439C62.5728 69.4381 62.9733 69.3397 63.7889 69.6115Z" fill="white"/>
<path d="M46.6888 45.0742C46.7706 45.0742 46.8524 45.0742 46.9366 45.0742C46.9366 50.799 46.9366 56.5239 46.9366 62.4222C43.6653 62.4222 40.3939 62.4222 37.0234 62.4222C37.0234 57.7605 37.0234 53.0989 37.0234 48.296C37.8264 48.6172 38.4866 48.9058 39.2229 49.3183C40.2024 49.8007 40.8773 49.9996 41.98 49.7829C43.4719 48.8426 44.6329 47.352 45.7984 46.044C46.0907 45.7167 46.3892 45.3949 46.6888 45.0742Z" fill="white"/>
<path d="M33.3051 45.8203C33.3051 51.218 33.3051 56.6157 33.3051 62.177C32.0412 62.177 31.0235 62.1214 29.8006 61.9146C29.6398 61.8877 29.479 61.8608 29.3133 61.833C28.9767 61.7764 28.6402 61.7191 28.3037 61.6611C27.789 61.5726 27.274 61.4861 26.7589 61.4001C24.2495 60.9758 24.2495 60.9758 23.3919 60.69C22.4884 52.6054 22.4884 52.6054 23.9034 50.5179C25.2242 49.3579 26.7661 48.7032 28.3972 48.0856C29.3347 47.7042 30.0477 47.1988 30.8578 46.5948C31.8472 45.876 31.9958 45.8203 33.3051 45.8203Z" fill="white"/>
<path d="M37.1586 26.0529C38.5933 26.0465 40.028 26.0418 41.4627 26.0386C41.9512 26.0373 42.4397 26.0355 42.9282 26.0333C43.6287 26.0301 44.3292 26.0287 45.0298 26.0275C45.2495 26.0262 45.4693 26.0248 45.6957 26.0234C46.2193 26.0234 46.7428 26.0368 47.2661 26.0529C48.1311 26.9204 47.7407 30.0348 47.7526 31.2866C47.7268 34.6324 47.7268 34.6324 46.5042 35.947C45.8365 36.5137 45.1422 37.0007 44.4153 37.4898C43.871 38.0464 43.871 38.0464 43.4272 38.6108C42.5968 39.5892 41.7049 40.4932 40.7869 41.3888C39.4598 41.0227 38.1233 40.5862 37.1586 39.5693C36.8663 38.5412 36.9168 37.5474 36.9561 36.4856C36.959 36.1875 36.9619 35.8893 36.965 35.5821C36.9766 34.6309 37.0026 33.6807 37.029 32.7298C37.0394 32.0846 37.0488 31.4393 37.0573 30.7941C37.0802 29.2133 37.1148 27.6332 37.1586 26.0529Z" fill="white"/>
<path d="M62.7971 20.7891C62.7971 23.4061 62.7971 26.0232 62.7971 28.7196C61.9995 28.241 61.2915 27.7963 60.5666 27.2326C59.8201 27.5617 59.3677 27.8929 58.8473 28.5182C58.7007 28.6917 58.554 28.8651 58.403 29.0439C58.2174 29.264 58.0317 29.4841 57.8405 29.7109C57.5735 30.0188 57.3059 30.3263 57.038 30.6334C56.895 30.7974 56.752 30.9614 56.6047 31.1304C56.3171 31.4602 56.0294 31.7899 55.7418 32.1196C55.6076 32.2742 55.4734 32.4287 55.3351 32.588C55.2078 32.7341 55.0805 32.8803 54.9493 33.0309C54.5905 33.4473 54.5905 33.4473 54.2276 34.0207C53.7332 34.5803 52.7518 35.8376 52.0165 35.9066C51.4953 35.9229 51.5931 34.6886 51.0716 34.6829C50.8068 34.6807 50.542 34.6784 50.2691 34.6761C50.0688 34.6733 49.8685 34.6704 49.6621 34.6674C50.0134 33.8615 50.4366 33.3506 51.0716 32.7468C51.9026 31.9541 52.6523 31.1124 53.4038 30.2457C54.3512 29.1708 55.3469 28.1401 56.3342 27.1019C56.5728 26.8494 56.5728 26.8494 56.8163 26.5917C56.9597 26.4408 57.1031 26.2899 57.2508 26.1344C57.6151 25.7534 57.6151 25.7534 57.8405 25.25C57.6156 25.1886 57.3907 25.1273 57.159 25.0641C56.3185 24.7408 55.9661 24.4089 55.3622 23.763C56.3409 23.3383 57.3201 22.9148 58.2997 22.4924C58.6331 22.3485 58.9662 22.2042 59.2993 22.0597C59.7775 21.8521 60.2563 21.6458 60.7351 21.4396C61.0232 21.315 61.3113 21.1904 61.6082 21.0621C62.3014 20.7891 62.3014 20.7891 62.7971 20.7891Z" fill="white"/>
<path d="M23.3926 38.6328C25.519 38.6328 27.6453 38.6328 29.8362 38.6328C29.1283 39.3406 28.4299 40.038 27.6977 40.7171C27.4588 40.9392 27.4588 40.9392 27.2151 41.1658C27.0526 41.3164 26.8902 41.467 26.7228 41.6222C26.397 41.9244 26.0714 42.2268 25.746 42.5293C25.5948 42.6696 25.4437 42.8099 25.288 42.9544C24.9495 43.2752 24.6229 43.6085 24.2997 43.9447C23.8882 44.3329 23.8882 44.3329 23.3926 44.3329C23.3926 42.4518 23.3926 40.5708 23.3926 38.6328Z" fill="white"/>
<path d="M53.6274 34.666C53.4508 34.8398 53.2741 35.0136 53.0921 35.1926C51.8999 36.3712 50.7331 37.5531 49.6428 38.8278C49.0278 39.5339 48.3931 40.2212 47.757 40.9082C47.6304 41.0449 47.5039 41.1817 47.3735 41.3226C46.8478 41.8902 46.3215 42.4574 45.7954 43.0246C44.3363 44.5982 42.8814 46.172 41.4838 47.8009C40.4655 47.6547 39.7478 47.3192 38.866 46.796C38.4779 46.5674 38.4779 46.5674 38.0819 46.3342C37.8142 46.1742 37.5465 46.0141 37.2706 45.8492C37.0029 45.6911 36.7352 45.533 36.4594 45.37C34.3817 44.1414 34.3817 44.1414 33.6529 43.6448C33.0948 43.2948 33.0948 43.2948 32.5598 43.3727C31.955 43.6362 31.4179 43.9504 30.86 44.3032C30.6226 44.4524 30.3852 44.6017 30.1406 44.7554C29.8867 44.917 29.6327 45.0786 29.3711 45.2452C29.1089 45.4106 28.8468 45.576 28.5768 45.7465C28.0297 46.0922 27.483 46.4385 26.9367 46.7855C26.15 47.2851 25.3623 47.7828 24.5742 48.2801C24.0923 48.5849 23.6105 48.8898 23.1288 49.1949C22.9067 49.3354 22.6845 49.4758 22.4556 49.6206C21.2538 50.385 20.0817 51.1741 18.9312 52.014C18.7676 51.9322 18.6041 51.8504 18.4355 51.7661C20.4833 49.8461 22.5372 47.9357 24.6313 46.0661C25.0548 45.6841 25.4781 45.302 25.9014 44.9199C26.7745 44.1336 27.6542 43.3565 28.5453 42.5907C28.9864 42.1956 29.4103 41.793 29.8328 41.3786C29.9637 41.2526 30.0946 41.1265 30.2294 40.9966C30.4895 40.7454 30.7467 40.4913 31.0007 40.234C31.3643 39.8859 31.3643 39.8859 32.0662 39.3747C33.0689 39.4574 33.8281 39.8551 34.7013 40.3341C35.0928 40.5476 35.0928 40.5476 35.4923 40.7654C35.7622 40.9147 36.0322 41.0641 36.3103 41.2179C36.5822 41.3663 36.854 41.5147 37.1341 41.6676C39.1209 42.756 39.1209 42.756 39.9968 43.34C40.9927 43.2719 41.4761 42.9742 42.1633 42.2702C42.3304 42.1011 42.4975 41.9319 42.6697 41.7577C42.8406 41.5795 43.0115 41.4014 43.1876 41.2179C43.3566 41.0466 43.5256 40.8752 43.6997 40.6986C45.0425 39.3264 46.3144 37.8996 47.5343 36.4172C48.647 35.1571 51.3816 31.466 53.0921 31.3203C53.9754 31.3086 52.7808 34.4104 53.6274 34.666Z" fill="white"/>
</svg>
