<svg width="28" height="28" viewBox="0 0 28 28" fill="none" xmlns="http://www.w3.org/2000/svg">
<path d="M20.9993 25.6663C21.6182 25.6663 22.2117 25.4205 22.6493 24.9829C23.0869 24.5453 23.3327 23.9518 23.3327 23.333V9.33301L16.3327 2.33301H6.99935C6.38051 2.33301 5.78702 2.57884 5.34943 3.01643C4.91185 3.45401 4.66602 4.0475 4.66602 4.66634V23.333C4.66602 23.9518 4.91185 24.5453 5.34943 24.9829C5.78702 25.4205 6.38051 25.6663 6.99935 25.6663H20.9993ZM15.166 4.66634L20.9993 10.4997H15.166V4.66634ZM8.16602 9.33301H11.666V11.6663H8.16602V9.33301ZM8.16602 13.9997H19.8327V16.333H8.16602V13.9997ZM8.16602 18.6663H19.8327V20.9997H8.16602V18.6663Z" fill="#25343F"/>
</svg>
