<svg width="28" height="28" viewBox="0 0 28 28" fill="none" xmlns="http://www.w3.org/2000/svg">
<path d="M14 2.625C11.7502 2.625 9.551 3.29213 7.68039 4.54203C5.80978 5.79193 4.35182 7.56847 3.49088 9.64698C2.62993 11.7255 2.40467 14.0126 2.84357 16.2192C3.28248 18.4257 4.36584 20.4525 5.95667 22.0433C7.54749 23.6342 9.57432 24.7175 11.7809 25.1564C13.9874 25.5953 16.2745 25.3701 18.353 24.5091C20.4315 23.6482 22.2081 22.1902 23.458 20.3196C24.7079 18.449 25.375 16.2498 25.375 14C25.3718 10.9841 24.1724 8.09271 22.0398 5.96018C19.9073 3.82764 17.0159 2.62818 14 2.625ZM18.1913 10.5H19.25C19.4821 10.5 19.7046 10.5922 19.8687 10.7563C20.0328 10.9204 20.125 11.1429 20.125 11.375C20.125 11.6071 20.0328 11.8296 19.8687 11.9937C19.7046 12.1578 19.4821 12.25 19.25 12.25H18.3542C18.2436 13.4449 17.6912 14.5556 16.805 15.3648C15.9188 16.1739 14.7625 16.6233 13.5625 16.625H12.1756L18.037 21.1848C18.1322 21.2537 18.2124 21.3411 18.2731 21.4416C18.3337 21.5422 18.3735 21.654 18.39 21.7702C18.4066 21.8865 18.3996 22.0049 18.3694 22.1184C18.3392 22.2319 18.2865 22.3382 18.2143 22.4308C18.1422 22.5235 18.0522 22.6007 17.9496 22.6579C17.847 22.7151 17.7339 22.751 17.6172 22.7635C17.5004 22.776 17.3823 22.7649 17.2699 22.7309C17.1575 22.6968 17.0531 22.6404 16.963 22.5652L9.08797 16.4402C8.94427 16.3282 8.83911 16.1741 8.78717 15.9995C8.73522 15.8248 8.73908 15.6384 8.79821 15.466C8.85734 15.2937 8.96879 15.1441 9.117 15.0382C9.26522 14.9322 9.44281 14.8752 9.625 14.875H13.5625C14.2989 14.8749 15.0106 14.6095 15.5672 14.1274C16.1238 13.6453 16.4881 12.9788 16.5933 12.25H9.625C9.39294 12.25 9.17038 12.1578 9.00629 11.9937C8.84219 11.8296 8.75 11.6071 8.75 11.375C8.75 11.1429 8.84219 10.9204 9.00629 10.7563C9.17038 10.5922 9.39294 10.5 9.625 10.5H16.3286C16.0803 9.97652 15.6886 9.53422 15.199 9.22445C14.7093 8.91469 14.1419 8.75017 13.5625 8.75H9.625C9.39294 8.75 9.17038 8.65781 9.00629 8.49372C8.84219 8.32962 8.75 8.10706 8.75 7.875C8.75 7.64294 8.84219 7.42038 9.00629 7.25628C9.17038 7.09219 9.39294 7 9.625 7H19.25C19.4821 7 19.7046 7.09219 19.8687 7.25628C20.0328 7.42038 20.125 7.64294 20.125 7.875C20.125 8.10706 20.0328 8.32962 19.8687 8.49372C19.7046 8.65781 19.4821 8.75 19.25 8.75H17.2725C17.6968 9.26331 18.0097 9.85926 18.1913 10.5Z" fill="white"/>
</svg>
