<svg width="28" height="28" viewBox="0 0 28 28" fill="none" xmlns="http://www.w3.org/2000/svg">
<path d="M10.7921 25.6663L10.3254 21.933C10.0726 21.8358 9.83461 21.7191 9.61139 21.583C9.38817 21.4469 9.16922 21.3011 8.95456 21.1455L5.48372 22.6038L2.27539 17.0622L5.27956 14.7872C5.26011 14.6511 5.25039 14.52 5.25039 14.394V13.6065C5.25039 13.4797 5.26011 13.3483 5.27956 13.2122L2.27539 10.9372L5.48372 5.39551L8.95456 6.85384C9.16845 6.69829 9.39206 6.55245 9.62539 6.41634C9.85872 6.28023 10.0921 6.16356 10.3254 6.06634L10.7921 2.33301H17.2087L17.6754 6.06634C17.9282 6.16356 18.1666 6.28023 18.3906 6.41634C18.6146 6.55245 18.8331 6.69829 19.0462 6.85384L22.5171 5.39551L25.7254 10.9372L22.7212 13.2122C22.7407 13.3483 22.7504 13.4797 22.7504 13.6065V14.3928C22.7504 14.5196 22.7309 14.6511 22.6921 14.7872L25.6962 17.0622L22.4879 22.6038L19.0462 21.1455C18.8323 21.3011 18.6087 21.4469 18.3754 21.583C18.1421 21.7191 17.9087 21.8358 17.6754 21.933L17.2087 25.6663H10.7921ZM14.0587 18.083C15.1865 18.083 16.149 17.6844 16.9462 16.8872C17.7434 16.09 18.1421 15.1275 18.1421 13.9997C18.1421 12.8719 17.7434 11.9094 16.9462 11.1122C16.149 10.315 15.1865 9.91634 14.0587 9.91634C12.9115 9.91634 11.9439 10.315 11.1561 11.1122C10.3682 11.9094 9.97461 12.8719 9.97539 13.9997C9.97617 15.1275 10.3701 16.09 11.1572 16.8872C11.9443 17.6844 12.9115 18.083 14.0587 18.083Z" fill="white"/>
</svg>
