<svg width="738" height="550" viewBox="0 0 738 550" fill="none" xmlns="http://www.w3.org/2000/svg">
<path d="M737.6 482.98H0V483.349H737.6V482.98Z" fill="#EBEBEB"/>
<path d="M663.692 506.716H614.834V507.085H663.692V506.716Z" fill="#EBEBEB"/>
<path d="M596.261 506.716H491.802V507.085H596.261V506.716Z" fill="#EBEBEB"/>
<path d="M434.196 493.027H405.887V493.395H434.196V493.027Z" fill="#EBEBEB"/>
<path d="M127.974 495.505H77.389V495.874H127.974V495.505Z" fill="#EBEBEB"/>
<path d="M233.082 495.505H141.103V495.874H233.082V495.505Z" fill="#EBEBEB"/>
<path d="M332.127 501.73H277.824V502.099H332.127V501.73Z" fill="#EBEBEB"/>
<path d="M349.622 417.187H64.776C62.5445 417.183 60.4058 416.293 58.8293 414.714C57.2528 413.135 56.3674 410.995 56.3674 408.763V8.34963C56.3868 6.13097 57.2808 4.00956 58.8552 2.44621C60.4296 0.882848 62.5573 0.00380069 64.776 0H349.622C351.856 0 353.999 0.887462 355.579 2.46715C357.158 4.04685 358.046 6.18937 358.046 8.42339V408.763C358.046 409.869 357.828 410.965 357.405 411.987C356.981 413.009 356.361 413.937 355.579 414.719C354.796 415.502 353.868 416.122 352.846 416.545C351.824 416.969 350.729 417.187 349.622 417.187ZM64.776 0.29504C62.6424 0.298948 60.5974 1.14928 59.0901 2.65938C57.5828 4.16949 56.7362 6.21597 56.7362 8.34963V408.763C56.7362 410.897 57.5828 412.943 59.0901 414.453C60.5974 415.964 62.6424 416.814 64.776 416.818H349.622C351.756 416.81 353.8 415.959 355.309 414.45C356.818 412.941 357.669 410.897 357.677 408.763V8.34963C357.669 6.21581 356.818 4.17161 355.309 2.66276C353.8 1.15392 351.756 0.302814 349.622 0.29504H64.776Z" fill="#EBEBEB"/>
<path d="M668.723 417.187H383.862C381.63 417.179 379.492 416.289 377.914 414.711C376.336 413.133 375.446 410.995 375.438 408.763V8.34963C375.462 6.12962 376.359 4.00823 377.936 2.44528C379.513 0.882331 381.642 0.00375924 383.862 0H668.723C670.939 0.00767767 673.063 0.888438 674.634 2.45138C676.206 4.01432 677.098 6.13352 677.117 8.34963V408.763C677.119 409.867 676.903 410.961 676.482 411.982C676.062 413.003 675.444 413.931 674.664 414.713C673.885 415.495 672.959 416.116 671.94 416.541C670.92 416.965 669.827 417.185 668.723 417.187ZM383.862 0.29504C381.728 0.302814 379.684 1.15392 378.175 2.66276C376.666 4.17161 375.815 6.21581 375.807 8.34963V408.763C375.815 410.897 376.666 412.941 378.175 414.45C379.684 415.959 381.728 416.81 383.862 416.818H668.723C670.857 416.81 672.901 415.959 674.41 414.45C675.919 412.941 676.77 410.897 676.778 408.763V8.34963C676.77 6.21581 675.919 4.17161 674.41 2.66276C672.901 1.15392 670.857 0.302814 668.723 0.29504H383.862Z" fill="#EBEBEB"/>
<path d="M477.124 29.1794H94.8849V260.461H477.124V29.1794Z" fill="#E6E6E6"/>
<path d="M474.542 29.1794H88.925V260.461H474.542V29.1794Z" fill="#F5F5F5"/>
<path d="M463.818 40.7303H99.6202V248.881H463.818V40.7303Z" fill="#FAFAFA"/>
<path d="M435.007 248.881L356.6 40.745H323.585L401.992 248.881H435.007Z" fill="white"/>
<path d="M392.639 248.881L314.218 40.745H291.485L369.906 248.881H392.639Z" fill="white"/>
<path d="M254.103 248.881L175.682 40.745H152.949L231.356 248.881H254.103Z" fill="white"/>
<path d="M191.333 40.745H178.558V248.896H191.333V40.745Z" fill="#E6E6E6"/>
<path d="M393.451 40.745H380.675V248.896H393.451V40.745Z" fill="#E6E6E6"/>
<path d="M189.017 32.1446H172.879V256.227H189.017V32.1446Z" fill="#F5F5F5"/>
<path d="M391.149 32.1299H375.011V256.213H391.149V32.1299Z" fill="#F5F5F5"/>
<path d="M100.771 40.745H99.635V248.896H100.771V40.745Z" fill="#E6E6E6"/>
<path d="M488.719 14.2947H84.4699C83.6797 14.2947 83.039 14.9353 83.039 15.7256V15.8141C83.039 16.6044 83.6797 17.2451 84.4699 17.2451H488.719C489.509 17.2451 490.15 16.6044 490.15 15.8141V15.7256C490.15 14.9353 489.509 14.2947 488.719 14.2947Z" fill="#E6E6E6"/>
<path d="M477.124 19.9005C477.615 19.8929 478.083 19.6946 478.43 19.3476C478.777 19.0007 478.975 18.5323 478.983 18.0417V13.5128C478.983 13.0185 478.787 12.5442 478.439 12.1933C478.091 11.8423 477.618 11.6432 477.124 11.6393C476.879 11.6374 476.637 11.6841 476.41 11.7768C476.184 11.8695 475.978 12.0064 475.805 12.1794C475.632 12.3524 475.495 12.5581 475.403 12.7845C475.31 13.0109 475.263 13.2535 475.265 13.4981V18.027C475.263 18.2716 475.31 18.5142 475.403 18.7406C475.495 18.967 475.632 19.1727 475.805 19.3457C475.978 19.5187 476.184 19.6555 476.41 19.7482C476.637 19.8409 476.879 19.8877 477.124 19.8857V19.9005Z" fill="#E6E6E6"/>
<path d="M105.241 19.9005C105.485 19.9024 105.728 19.8557 105.954 19.763C106.181 19.6703 106.387 19.5334 106.56 19.3604C106.733 19.1874 106.869 18.9817 106.962 18.7553C107.055 18.5289 107.102 18.2864 107.1 18.0417V13.5128C107.103 13.2682 107.059 13.0253 106.968 12.7981C106.877 12.571 106.742 12.3642 106.57 12.1898C106.398 12.0155 106.194 11.877 105.968 11.7825C105.742 11.688 105.5 11.6393 105.256 11.6393C104.761 11.6432 104.288 11.8423 103.94 12.1933C103.592 12.5442 103.397 13.0185 103.397 13.5128V18.0417C103.404 18.5298 103.601 18.996 103.944 19.3426C104.288 19.6891 104.753 19.8891 105.241 19.9005Z" fill="#E6E6E6"/>
<path opacity="0.6" d="M470.279 15.7699H84.8535V180.801H470.279V15.7699Z" fill="#EBEBEB"/>
<path d="M641.815 76.4301H544.246V176.198H641.815V76.4301Z" fill="#E0E0E0"/>
<path d="M639.248 76.4301H538.359V176.198H639.248V76.4301Z" fill="#F5F5F5"/>
<path d="M630.781 87.7449H546.798V164.868H630.781V87.7449Z" fill="white"/>
<path d="M641.225 303.39H613.919V474.69H641.225V303.39Z" fill="#F0F0F0"/>
<path d="M635.974 474.69H335.166V482.966H635.974V474.69Z" fill="#F0F0F0"/>
<path d="M613.904 303.404H329.928V474.705H613.904V303.404Z" fill="#F5F5F5"/>
<path d="M641.225 296.176H613.919V303.404H641.225V296.176Z" fill="#E6E6E6"/>
<path d="M613.904 296.176H329.928V303.404H613.904V296.176Z" fill="#F0F0F0"/>
<path d="M604.109 363.268H339.753V318.643H604.109V363.268ZM341.524 361.424H602.265V320.399H341.583L341.524 361.424Z" fill="#E0E0E0"/>
<path d="M604.109 459.525H339.753V374.229H604.109V459.525ZM341.524 457.696H602.265V376.102H341.583L341.524 457.696Z" fill="#E0E0E0"/>
<path d="M568.483 319.499H375.365V325.37H568.483V319.499Z" fill="#E0E0E0"/>
<path d="M568.483 375.143H375.365V381.015H568.483V375.143Z" fill="#E0E0E0"/>
<path d="M538.758 293.048H433.812V296.176H538.758V293.048Z" fill="#E0E0E0"/>
<path d="M538.758 293.049H433.812L443.902 232.964H548.848L538.758 293.049Z" fill="#E0E0E0"/>
<path d="M536.811 293.049H431.865L441.955 232.964H546.901L536.811 293.049Z" fill="#EBEBEB"/>
<path d="M435.848 288.328L444.434 237.242C444.483 236.926 444.645 236.64 444.888 236.434C445.132 236.228 445.442 236.117 445.761 236.12H541.649C541.824 236.117 541.998 236.148 542.161 236.212C542.323 236.276 542.472 236.372 542.597 236.494C542.722 236.617 542.821 236.763 542.889 236.924C542.957 237.085 542.992 237.258 542.992 237.433C543.006 237.516 543.006 237.601 542.992 237.684L534.406 288.77C534.356 289.086 534.195 289.372 533.951 289.578C533.707 289.784 533.397 289.895 533.078 289.891H437.19C437.015 289.895 436.842 289.864 436.679 289.8C436.516 289.736 436.368 289.64 436.243 289.518C436.118 289.395 436.018 289.249 435.951 289.088C435.883 288.927 435.848 288.753 435.848 288.579C435.834 288.496 435.834 288.411 435.848 288.328Z" fill="#FAFAFA"/>
<path d="M515.007 293.048H410.061V296.176H515.007V293.048Z" fill="#F0F0F0"/>
<path d="M249.412 277.161H193.251C180.594 277.161 169.176 288.121 166.196 303.139L156.799 350.345H137.518C128.328 350.345 120.421 358.208 118.695 369.095L116.128 385.322C112.248 385.986 108.914 389.556 107.97 394.292H223.921C236.563 394.292 247.966 383.346 250.946 368.343L264.43 300.484C266.805 288.269 259.635 277.161 249.412 277.161ZM135.453 385.027H121.188L123.578 370.202C124.861 362.191 130.703 356.364 137.474 356.364H155.575L153.421 367.885C151.37 377.814 143.817 385.027 135.453 385.027Z" fill="#E6E6E6"/>
<path d="M221.487 394.159H225.558L233.273 482.981H229.202L221.487 394.159Z" fill="#E0E0E0"/>
<path d="M206.203 394.159H210.275L217.99 482.981H213.919L206.203 394.159Z" fill="#E0E0E0"/>
<path d="M125.643 394.159H121.571L113.856 482.981H117.928L125.643 394.159Z" fill="#E0E0E0"/>
<path d="M140.926 394.159H136.854L129.139 482.981H133.211L140.926 394.159Z" fill="#E0E0E0"/>
<path d="M368.8 549.601C526.768 549.601 654.827 542.124 654.827 532.901C654.827 523.679 526.768 516.202 368.8 516.202C210.832 516.202 82.7735 523.679 82.7735 532.901C82.7735 542.124 210.832 549.601 368.8 549.601Z" fill="#F5F5F5"/>
<path d="M545.101 34.6672H192.499C181.508 34.6672 172.598 43.5769 172.598 54.5676V189.489C172.598 200.48 181.508 209.39 192.499 209.39H545.101C556.092 209.39 565.002 200.48 565.002 189.489V54.5676C565.002 43.5769 556.092 34.6672 545.101 34.6672Z" fill="#0B56A4"/>
<path opacity="0.6" d="M545.101 34.6672H192.499C181.508 34.6672 172.598 43.5769 172.598 54.5676V189.489C172.598 200.48 181.508 209.39 192.499 209.39H545.101C556.092 209.39 565.002 200.48 565.002 189.489V54.5676C565.002 43.5769 556.092 34.6672 545.101 34.6672Z" fill="white"/>
<path opacity="0.9" d="M545.101 39.0928H192.499C183.952 39.0928 177.024 46.0211 177.024 54.5676V189.489C177.024 198.036 183.952 204.964 192.499 204.964H545.101C553.648 204.964 560.576 198.036 560.576 189.489V54.5676C560.576 46.0211 553.648 39.0928 545.101 39.0928Z" fill="white"/>
<path d="M333.764 109.165V98.6024H337.821C338.359 98.5853 338.897 98.6199 339.429 98.7056C339.89 98.7788 340.331 98.9444 340.727 99.1924C341.091 99.4526 341.381 99.8035 341.568 100.21C341.793 100.669 341.905 101.175 341.892 101.686C341.913 102.53 341.606 103.349 341.037 103.972C340.609 104.327 340.114 104.592 339.582 104.751C339.05 104.911 338.491 104.962 337.939 104.901H335.224V109.165H333.764ZM335.151 103.618H337.821C338.504 103.681 339.187 103.503 339.753 103.116C339.95 102.927 340.102 102.697 340.199 102.442C340.296 102.187 340.335 101.913 340.314 101.641C340.325 101.238 340.212 100.842 339.989 100.505C339.776 100.201 339.463 99.9818 339.104 99.8858C338.672 99.7996 338.232 99.765 337.791 99.7825H335.092L335.151 103.618Z" fill="#263238"/>
<path d="M343.412 109.165V101.508H344.592V102.674C344.784 102.262 345.061 101.895 345.403 101.597C345.654 101.435 345.946 101.348 346.244 101.346C346.717 101.356 347.177 101.499 347.572 101.759L347.129 102.954C346.838 102.781 346.509 102.685 346.171 102.674C345.896 102.67 345.629 102.764 345.418 102.939C345.181 103.114 345.01 103.364 344.931 103.647C344.784 104.125 344.709 104.623 344.71 105.123V109.165H343.412Z" fill="#263238"/>
<path d="M347.867 105.359C347.815 104.778 347.894 104.192 348.098 103.646C348.302 103.1 348.626 102.606 349.047 102.202C349.718 101.635 350.574 101.336 351.452 101.361C351.93 101.345 352.407 101.428 352.851 101.606C353.295 101.784 353.698 102.052 354.033 102.394C354.731 103.173 355.092 104.196 355.036 105.241C355.067 106.041 354.916 106.838 354.594 107.572C354.292 108.122 353.842 108.577 353.296 108.885C352.731 109.196 352.096 109.358 351.452 109.357C350.971 109.373 350.492 109.29 350.045 109.112C349.598 108.934 349.193 108.666 348.855 108.324C348.149 107.504 347.794 106.439 347.867 105.359ZM349.195 105.359C349.135 106.144 349.36 106.924 349.829 107.557C350.03 107.789 350.279 107.974 350.56 108.099C350.84 108.224 351.145 108.285 351.452 108.28C351.758 108.288 352.063 108.226 352.341 108.098C352.62 107.97 352.866 107.78 353.06 107.542C353.532 106.9 353.757 106.109 353.694 105.315C353.751 104.541 353.52 103.774 353.045 103.161C352.852 102.926 352.608 102.738 352.332 102.61C352.057 102.482 351.756 102.418 351.452 102.423C351.144 102.421 350.839 102.486 350.559 102.614C350.279 102.741 350.03 102.928 349.829 103.161C349.353 103.79 349.127 104.573 349.195 105.359Z" fill="#263238"/>
<path d="M356.305 109.814L357.574 109.991C357.581 110.157 357.625 110.32 357.701 110.467C357.778 110.615 357.885 110.744 358.016 110.847C358.4 111.115 358.862 111.245 359.329 111.215C359.819 111.242 360.304 111.113 360.716 110.847C361.042 110.595 361.276 110.242 361.38 109.843C361.473 109.293 361.508 108.734 361.483 108.176C361.225 108.49 360.901 108.743 360.534 108.917C360.166 109.09 359.765 109.18 359.359 109.18C358.89 109.199 358.423 109.106 357.997 108.908C357.571 108.711 357.198 108.414 356.91 108.044C356.33 107.254 356.03 106.294 356.054 105.315C356.045 104.62 356.181 103.932 356.453 103.294C356.682 102.699 357.083 102.186 357.603 101.818C358.124 101.478 358.736 101.303 359.359 101.317C359.792 101.307 360.222 101.402 360.612 101.591C361.002 101.781 361.341 102.061 361.601 102.408V101.479H362.796V108.103C362.851 108.96 362.725 109.819 362.427 110.625C362.176 111.129 361.774 111.542 361.276 111.805C360.681 112.115 360.015 112.263 359.344 112.233C358.561 112.266 357.788 112.055 357.131 111.628C356.855 111.417 356.634 111.141 356.49 110.825C356.346 110.508 356.282 110.161 356.305 109.814ZM357.382 105.211C357.319 105.992 357.533 106.77 357.987 107.409C358.166 107.627 358.391 107.802 358.646 107.922C358.902 108.042 359.18 108.104 359.462 108.103C359.744 108.105 360.023 108.043 360.278 107.923C360.534 107.803 360.759 107.628 360.937 107.409C361.391 106.787 361.606 106.023 361.542 105.256C361.6 104.5 361.38 103.75 360.922 103.146C360.747 102.922 360.523 102.741 360.268 102.617C360.012 102.492 359.732 102.427 359.447 102.427C359.163 102.427 358.882 102.492 358.627 102.617C358.371 102.741 358.147 102.922 357.972 103.146C357.535 103.742 357.326 104.475 357.382 105.211Z" fill="#263238"/>
<path d="M364.743 109.165V101.508H365.85V102.674C366.042 102.258 366.324 101.89 366.676 101.597C366.92 101.433 367.208 101.346 367.502 101.346C367.975 101.349 368.438 101.493 368.829 101.759L368.387 102.954C368.102 102.78 367.777 102.683 367.443 102.674C367.164 102.671 366.893 102.765 366.676 102.939C366.447 103.122 366.277 103.368 366.189 103.648C366.054 104.128 365.985 104.624 365.982 105.123V109.165H364.743Z" fill="#263238"/>
<path d="M374.907 106.716L376.25 106.878C376.074 107.604 375.658 108.249 375.07 108.707C374.332 109.192 373.454 109.416 372.574 109.344C371.695 109.272 370.865 108.908 370.216 108.309C369.865 107.907 369.598 107.439 369.428 106.933C369.258 106.426 369.19 105.891 369.228 105.359C369.175 104.284 369.534 103.229 370.231 102.408C370.561 102.058 370.962 101.783 371.407 101.6C371.853 101.416 372.332 101.33 372.813 101.346C373.28 101.33 373.745 101.414 374.178 101.592C374.61 101.77 375 102.038 375.32 102.379C375.997 103.208 376.339 104.261 376.279 105.329V105.669H370.57C370.571 106.379 370.827 107.065 371.293 107.601C371.496 107.819 371.743 107.99 372.018 108.105C372.293 108.219 372.589 108.274 372.886 108.265C373.324 108.279 373.754 108.149 374.111 107.896C374.481 107.585 374.757 107.176 374.907 106.716ZM370.644 104.665H374.922C374.921 104.132 374.745 103.614 374.421 103.19C374.231 102.95 373.989 102.757 373.712 102.627C373.436 102.496 373.133 102.432 372.827 102.438C372.555 102.434 372.284 102.484 372.031 102.585C371.777 102.687 371.547 102.837 371.352 103.028C370.91 103.459 370.655 104.048 370.644 104.665Z" fill="#263238"/>
<path d="M377.356 106.893L378.64 106.686C378.681 107.14 378.892 107.561 379.23 107.867C379.637 108.12 380.107 108.255 380.587 108.255C381.067 108.255 381.537 108.12 381.944 107.867C382.074 107.764 382.18 107.635 382.254 107.487C382.328 107.339 382.368 107.176 382.372 107.011C382.371 106.873 382.336 106.736 382.269 106.615C382.202 106.494 382.105 106.392 381.988 106.318C381.567 106.113 381.121 105.964 380.661 105.875C379.984 105.729 379.323 105.522 378.684 105.255C378.339 105.107 378.05 104.854 377.858 104.533C377.665 104.223 377.562 103.865 377.563 103.5C377.564 103.173 377.644 102.851 377.796 102.561C377.947 102.271 378.166 102.021 378.433 101.833C378.686 101.661 378.965 101.532 379.259 101.449C379.624 101.349 380.002 101.299 380.38 101.302C380.922 101.289 381.462 101.374 381.974 101.553C382.368 101.689 382.716 101.934 382.977 102.261C383.212 102.616 383.363 103.019 383.419 103.441L382.151 103.618C382.104 103.257 381.925 102.926 381.649 102.689C381.309 102.45 380.898 102.336 380.484 102.364C380.036 102.334 379.59 102.437 379.2 102.659C379.087 102.737 378.993 102.84 378.927 102.961C378.86 103.081 378.822 103.215 378.817 103.352C378.816 103.515 378.874 103.672 378.979 103.795C379.106 103.962 379.281 104.086 379.48 104.149C379.613 104.149 379.982 104.311 380.616 104.474C381.271 104.639 381.916 104.841 382.549 105.078C382.886 105.224 383.177 105.458 383.39 105.757C383.603 106.086 383.711 106.472 383.7 106.863C383.697 107.299 383.569 107.724 383.331 108.088C383.065 108.486 382.684 108.795 382.239 108.973C381.726 109.191 381.174 109.301 380.616 109.298C379.811 109.356 379.009 109.138 378.345 108.678C377.813 108.219 377.463 107.587 377.356 106.893Z" fill="#263238"/>
<path d="M384.732 106.893L386.016 106.686C386.057 107.14 386.268 107.561 386.606 107.867C387.013 108.12 387.483 108.255 387.963 108.255C388.443 108.255 388.913 108.12 389.32 107.867C389.45 107.764 389.556 107.635 389.63 107.487C389.704 107.339 389.744 107.176 389.748 107.011C389.747 106.873 389.712 106.736 389.645 106.615C389.578 106.494 389.481 106.392 389.364 106.318C388.943 106.113 388.497 105.964 388.037 105.875C387.36 105.729 386.699 105.522 386.06 105.255C385.715 105.107 385.426 104.854 385.234 104.533C385.041 104.223 384.938 103.865 384.939 103.5C384.94 103.173 385.02 102.851 385.172 102.561C385.323 102.271 385.542 102.021 385.809 101.833C386.062 101.661 386.341 101.532 386.635 101.449C387 101.349 387.378 101.299 387.756 101.302C388.298 101.289 388.838 101.374 389.35 101.553C389.744 101.689 390.092 101.934 390.353 102.261C390.588 102.616 390.739 103.019 390.795 103.441L389.527 103.618C389.48 103.257 389.301 102.926 389.025 102.689C388.685 102.45 388.274 102.336 387.86 102.364C387.412 102.334 386.966 102.437 386.576 102.659C386.463 102.737 386.369 102.84 386.303 102.961C386.236 103.081 386.198 103.215 386.193 103.352C386.192 103.515 386.25 103.672 386.355 103.795C386.482 103.962 386.657 104.086 386.856 104.149C386.989 104.149 387.358 104.311 387.992 104.474C388.647 104.639 389.292 104.841 389.925 105.078C390.262 105.224 390.553 105.458 390.766 105.757C390.979 106.086 391.087 106.472 391.076 106.863C391.073 107.299 390.945 107.724 390.707 108.088C390.441 108.486 390.06 108.795 389.615 108.973C389.102 109.191 388.55 109.301 387.992 109.298C387.187 109.356 386.385 109.138 385.721 108.678C385.189 108.219 384.839 107.587 384.732 106.893Z" fill="#263238"/>
<path d="M392.993 109.165V107.69H394.468V109.165H392.993Z" fill="#263238"/>
<path d="M397.094 109.165V107.69H398.57V109.165H397.094Z" fill="#263238"/>
<path d="M401.254 109.165V107.69H402.73V109.165H401.254Z" fill="#263238"/>
<path opacity="0.7" d="M545.101 39.0928H192.528C188.419 39.0928 184.478 40.7242 181.57 43.6287C178.663 46.5331 177.028 50.4729 177.024 54.5824V71.1636H560.576V54.5824C560.568 50.4792 558.936 46.5461 556.036 43.6434C553.136 40.7406 549.204 39.1045 545.101 39.0928Z" fill="#0B56A4"/>
<path d="M207.752 55.1282C207.752 54.0195 207.424 52.9357 206.808 52.0138C206.192 51.092 205.316 50.3735 204.292 49.9492C203.268 49.5249 202.14 49.4139 201.053 49.6302C199.966 49.8465 198.967 50.3804 198.183 51.1644C197.399 51.9483 196.865 52.9472 196.649 54.0346C196.432 55.122 196.543 56.2491 196.968 57.2735C197.392 58.2978 198.11 59.1733 199.032 59.7892C199.954 60.4052 201.038 60.734 202.147 60.734C203.633 60.734 205.059 60.1434 206.111 59.0921C207.162 58.0408 207.752 56.615 207.752 55.1282Z" fill="white"/>
<path d="M229.88 55.1282C229.88 54.0195 229.552 52.9357 228.936 52.0138C228.32 51.092 227.444 50.3735 226.42 49.9492C225.396 49.5249 224.268 49.4139 223.181 49.6302C222.094 49.8465 221.095 50.3804 220.311 51.1644C219.527 51.9483 218.993 52.9472 218.777 54.0346C218.56 55.122 218.671 56.2491 219.096 57.2735C219.52 58.2978 220.238 59.1733 221.16 59.7892C222.082 60.4052 223.166 60.734 224.275 60.734C225.761 60.734 227.187 60.1434 228.239 59.0921C229.29 58.0408 229.88 56.615 229.88 55.1282Z" fill="white"/>
<path d="M252.008 55.1282C252.008 54.0195 251.68 52.9357 251.064 52.0138C250.448 51.092 249.572 50.3735 248.548 49.9492C247.524 49.5249 246.396 49.4139 245.309 49.6302C244.222 49.8465 243.223 50.3804 242.439 51.1644C241.655 51.9483 241.121 52.9472 240.905 54.0346C240.688 55.122 240.799 56.2491 241.224 57.2735C241.648 58.2978 242.366 59.1733 243.288 59.7892C244.21 60.4052 245.294 60.734 246.403 60.734C247.889 60.734 249.315 60.1434 250.367 59.0921C251.418 58.0408 252.008 56.615 252.008 55.1282Z" fill="white"/>
<path opacity="0.1" d="M534.524 143.596H203.076C201.776 143.596 200.528 143.08 199.608 142.162C198.687 141.244 198.167 139.999 198.164 138.698C198.167 137.397 198.686 136.149 199.607 135.229C200.527 134.309 201.774 133.79 203.076 133.786H534.524C535.826 133.79 537.073 134.309 537.993 135.229C538.914 136.149 539.432 137.397 539.436 138.698C539.432 139.999 538.913 141.244 537.992 142.162C537.072 143.08 535.824 143.596 534.524 143.596Z" fill="#0B56A4"/>
<path d="M449.213 143.596H203.076C201.776 143.596 200.528 143.08 199.608 142.162C198.687 141.244 198.167 139.999 198.164 138.698C198.167 137.397 198.686 136.149 199.607 135.229C200.527 134.309 201.774 133.79 203.076 133.786H449.213C450.513 133.79 451.759 134.309 452.677 135.23C453.595 136.151 454.111 137.398 454.111 138.698C454.111 139.997 453.595 141.243 452.676 142.161C451.758 143.08 450.512 143.596 449.213 143.596Z" fill="#0B56A4"/>
<path d="M473.539 165.562H460.971L454.155 158.732L447.34 165.562H434.741C433.316 165.569 431.951 166.139 430.943 167.147C429.935 168.155 429.365 169.52 429.357 170.946V186.554C429.365 187.979 429.935 189.344 430.943 190.353C431.951 191.361 433.316 191.931 434.741 191.938H473.539C474.965 191.931 476.33 191.361 477.338 190.353C478.346 189.344 478.916 187.979 478.924 186.554V170.946C478.916 169.52 478.346 168.155 477.338 167.147C476.33 166.139 474.965 165.569 473.539 165.562Z" fill="#263238"/>
<path d="M440.687 174.31H447.649V175.918C447.087 176.445 446.592 177.04 446.174 177.688C445.679 178.496 445.287 179.363 445.009 180.269C444.768 181.122 444.615 181.997 444.552 182.881H442.176C442.321 181.677 442.619 180.498 443.062 179.37C443.561 178.274 444.201 177.247 444.965 176.316H440.731L440.687 174.31Z" fill="white"/>
<path d="M449.611 174.31H455.261V176.213H451.411L451.205 177.496C451.461 177.379 451.728 177.285 452.001 177.216C452.253 177.156 452.51 177.127 452.768 177.127C453.15 177.109 453.531 177.169 453.889 177.303C454.247 177.438 454.573 177.644 454.848 177.909C455.112 178.159 455.32 178.462 455.459 178.797C455.599 179.132 455.667 179.493 455.66 179.856C455.655 180.418 455.514 180.97 455.247 181.464C454.985 181.962 454.579 182.368 454.081 182.63C453.474 182.917 452.806 183.053 452.134 183.028C451.637 183.041 451.141 182.986 450.659 182.866C450.287 182.777 449.937 182.616 449.626 182.394C449.359 182.19 449.125 181.946 448.933 181.671C448.741 181.358 448.592 181.021 448.49 180.668L450.91 180.402C450.943 180.736 451.088 181.048 451.323 181.287C451.533 181.478 451.806 181.583 452.09 181.582C452.245 181.585 452.399 181.551 452.54 181.485C452.681 181.418 452.804 181.32 452.901 181.199C453.138 180.875 453.253 180.478 453.226 180.078C453.268 179.676 453.151 179.274 452.901 178.957C452.79 178.839 452.654 178.746 452.504 178.685C452.354 178.624 452.193 178.596 452.031 178.602C451.8 178.604 451.572 178.659 451.367 178.765C451.165 178.879 450.985 179.029 450.836 179.207L448.815 178.927L449.611 174.31Z" fill="white"/>
<path d="M456.722 176.419C456.722 176.027 456.808 175.639 456.973 175.283C457.15 174.935 457.427 174.647 457.769 174.457C458.162 174.257 458.597 174.156 459.038 174.162C459.348 174.147 459.657 174.194 459.949 174.301C460.24 174.407 460.507 174.571 460.734 174.782C461.133 175.234 461.352 175.816 461.352 176.419C461.352 177.022 461.133 177.604 460.734 178.057C460.507 178.268 460.24 178.431 459.949 178.537C459.657 178.644 459.348 178.691 459.038 178.676C458.597 178.682 458.162 178.581 457.769 178.381C457.427 178.191 457.15 177.904 456.973 177.555C456.808 177.199 456.722 176.811 456.722 176.419ZM458.359 176.419C458.332 176.784 458.414 177.149 458.595 177.467C458.639 177.526 458.694 177.576 458.757 177.614C458.821 177.651 458.891 177.675 458.964 177.685C459.037 177.695 459.112 177.69 459.183 177.67C459.254 177.65 459.32 177.616 459.377 177.57C459.415 177.539 459.45 177.505 459.481 177.467C459.654 177.146 459.735 176.783 459.717 176.419C459.743 176.05 459.661 175.681 459.481 175.357C459.428 175.302 459.365 175.258 459.296 175.229C459.226 175.199 459.151 175.183 459.075 175.183C458.999 175.183 458.924 175.199 458.854 175.229C458.784 175.258 458.722 175.302 458.669 175.357C458.669 175.357 458.669 175.357 458.595 175.357C458.409 175.683 458.326 176.059 458.359 176.434V176.419ZM463.995 174.147H465.234L460.262 183.323H459.038L463.995 174.147ZM462.903 181.037C462.931 180.665 463.037 180.303 463.213 179.974C463.39 179.626 463.667 179.338 464.009 179.148C464.4 178.942 464.837 178.84 465.278 178.853C465.588 178.838 465.897 178.886 466.189 178.992C466.48 179.098 466.747 179.262 466.975 179.473C467.373 179.925 467.593 180.507 467.593 181.11C467.593 181.713 467.373 182.295 466.975 182.748C466.747 182.959 466.48 183.122 466.189 183.229C465.897 183.335 465.588 183.382 465.278 183.367C464.837 183.382 464.399 183.281 464.009 183.072C463.657 182.896 463.376 182.604 463.213 182.246C463.022 181.876 462.917 181.468 462.903 181.051V181.037ZM464.54 181.037C464.514 181.401 464.597 181.766 464.777 182.084C464.819 182.142 464.872 182.192 464.934 182.229C464.996 182.267 465.064 182.292 465.135 182.303C465.207 182.314 465.28 182.311 465.35 182.293C465.42 182.276 465.486 182.245 465.544 182.202C465.59 182.17 465.63 182.13 465.662 182.084C465.85 181.769 465.932 181.402 465.898 181.037C465.931 180.667 465.849 180.295 465.662 179.974C465.609 179.908 465.542 179.855 465.465 179.819C465.388 179.783 465.304 179.766 465.219 179.768C465.132 179.762 465.045 179.779 464.968 179.818C464.89 179.857 464.824 179.916 464.777 179.989C464.59 180.316 464.507 180.691 464.54 181.066V181.037Z" fill="white"/>
<path opacity="0.1" d="M368.343 197.264L369.818 191.053C369.894 190.821 369.923 190.576 369.904 190.332C369.885 190.088 369.818 189.85 369.707 189.632C369.596 189.415 369.443 189.221 369.257 189.062C369.071 188.903 368.856 188.783 368.623 188.708C368.415 188.634 368.194 188.604 367.974 188.619H345.536C341.863 168.438 328.807 153.613 332.569 129.095C339.945 117.5 313.391 74.4091 294.111 100.314C269.135 101.951 292.237 148.803 244.721 160.797C209.773 169.648 190.611 189.888 182.895 206.912C185.831 208.548 189.137 209.406 192.499 209.405H193.384C196.39 202.699 200.493 196.542 205.525 191.186C202.91 197.116 200.658 203.2 198.783 209.405H370.511L370.939 199.786C370.967 199.482 370.935 199.175 370.844 198.883C370.753 198.591 370.606 198.32 370.41 198.086C370.214 197.851 369.973 197.658 369.702 197.517C369.431 197.376 369.134 197.29 368.829 197.264C368.668 197.249 368.505 197.249 368.343 197.264Z" fill="#0B56A4"/>
<path d="M316.519 205.982C313.568 228.405 310.235 272.632 248.851 277.013C208.313 279.89 190.537 241.357 165.016 228.789C167.273 210.378 175.726 191.909 176.021 191.171C167.055 200.904 160.959 212.928 158.407 225.912C155.452 224.808 152.413 223.945 149.32 223.331C149.32 205.982 167.686 172.761 215.217 160.782C262.748 148.803 239.631 101.951 264.607 100.299C283.917 74.3943 310.441 117.485 303.065 129.08C298.315 160.074 320.428 175.549 316.519 205.982Z" fill="#263238"/>
<path d="M339.694 206.838C339.578 206.052 339.252 205.312 338.751 204.696C338.25 204.079 337.592 203.609 336.847 203.335C336.101 203.06 335.296 202.991 334.514 203.135C333.733 203.279 333.005 203.631 332.407 204.153L325.031 210.408C324.609 210.964 324.325 211.612 324.202 212.3C324.079 212.987 324.121 213.693 324.323 214.361L325.636 218.654C329.094 218.875 332.561 218.372 335.814 217.179C337.309 216.677 338.576 215.659 339.388 214.307C340.199 212.955 340.501 211.358 340.24 209.803L339.694 206.838Z" fill="#FFB573"/>
<path d="M297.99 181.037C298.285 182.659 298.684 184.651 299.067 186.495C299.451 188.339 299.879 190.227 300.321 192.086C301.206 195.818 302.224 199.462 303.272 203.15C304.319 206.838 305.647 210.29 307.004 213.742C308.389 217.059 309.981 220.286 311.769 223.404L307.963 220.38C308.75 220.883 309.698 221.073 310.618 220.911C312.338 220.649 313.994 220.069 315.501 219.2C317.433 218.168 319.274 216.974 321.003 215.63C322.818 214.273 324.691 212.68 326.344 211.204L326.698 210.909C327.466 210.25 328.437 209.874 329.449 209.844C330.461 209.814 331.452 210.132 332.258 210.745C333.064 211.357 333.635 212.228 333.877 213.211C334.119 214.194 334.017 215.23 333.587 216.146C332.356 218.744 330.874 221.214 329.161 223.522C327.433 225.905 325.455 228.096 323.261 230.057C320.735 232.326 317.795 234.085 314.601 235.235C312.704 235.912 310.713 236.285 308.7 236.342C306.518 236.398 304.342 236.078 302.268 235.398C300.861 234.932 299.641 234.027 298.787 232.816L298.462 232.374C295.864 228.688 293.565 224.801 291.588 220.749C289.7 216.822 288.03 212.793 286.587 208.682C285.162 204.64 283.941 200.529 282.929 196.364C282.427 194.299 281.94 192.219 281.453 190.124C280.967 188.029 280.686 185.993 280.362 183.633C280.084 181.36 280.699 179.068 282.075 177.239C283.452 175.409 285.484 174.184 287.745 173.821C290.006 173.459 292.32 173.986 294.2 175.293C296.08 176.6 297.38 178.584 297.828 180.83L297.99 181.037Z" fill="#FFB573"/>
<path d="M195.198 490.268C192.912 479.942 193.487 477.507 191.628 471.828C190.653 468.613 189.254 465.542 187.468 462.696C185.846 459.746 188.944 457.282 192.012 456.884C194.417 456.589 196.954 456.486 199.904 456.014L206.277 467.904C202.914 472.167 200.229 482.656 201.424 490.592C202.25 496.316 196.113 494.413 195.198 490.268Z" fill="#0B56A4"/>
<path d="M297.99 244.249C297.99 244.249 299.672 331.684 301.457 380.129C306.148 408.793 207.575 468.479 207.575 468.479C205.466 469.482 199.875 458.551 199.963 456.014C199.963 456.014 242.361 393.569 267.616 378.492C239.587 301.118 247.258 244.249 247.258 244.249H297.99Z" fill="#263238"/>
<path opacity="0.2" d="M247.199 244.249H279.196C279.196 244.249 272.794 329.722 265.669 373.122C239.956 298.507 247.199 244.249 247.199 244.249Z" fill="black"/>
<path opacity="0.2" d="M227.417 418.957C239.558 403.806 253.602 387.978 264.887 380.248C263.279 395.236 261.627 413.322 260.358 431.88C249.751 440.273 238.746 448.107 229.541 454.317C228.015 442.594 227.306 430.779 227.417 418.957Z" fill="black"/>
<path d="M213.697 466.325C212.414 467.24 210.128 468.907 208.475 470.19C208.347 470.294 208.2 470.37 208.041 470.416C207.883 470.461 207.718 470.474 207.554 470.455C207.391 470.436 207.233 470.384 207.09 470.304C206.946 470.223 206.821 470.114 206.72 469.984C203.551 465.625 200.79 460.983 198.473 456.117C198.351 455.877 198.309 455.604 198.355 455.338C198.4 455.072 198.529 454.828 198.724 454.642L202.855 450.541C203.095 450.305 203.418 450.172 203.755 450.172C204.091 450.172 204.414 450.305 204.655 450.541L204.787 450.703L214.007 464.54C214.106 464.677 214.176 464.833 214.214 464.997C214.251 465.161 214.256 465.332 214.227 465.498C214.198 465.664 214.137 465.823 214.046 465.965C213.955 466.107 213.836 466.23 213.697 466.325Z" fill="#0B56A4"/>
<path opacity="0.3" d="M213.697 466.325C212.414 467.24 210.128 468.907 208.475 470.19C208.347 470.294 208.2 470.37 208.041 470.416C207.883 470.461 207.718 470.474 207.554 470.455C207.391 470.436 207.233 470.384 207.09 470.304C206.946 470.223 206.821 470.114 206.72 469.984C203.551 465.625 200.79 460.983 198.473 456.117C198.351 455.877 198.309 455.604 198.355 455.338C198.4 455.072 198.529 454.828 198.724 454.642L202.855 450.541C203.095 450.305 203.418 450.172 203.755 450.172C204.091 450.172 204.414 450.305 204.655 450.541L204.787 450.703L214.007 464.54C214.106 464.677 214.176 464.833 214.214 464.997C214.251 465.161 214.256 465.332 214.227 465.498C214.198 465.664 214.137 465.823 214.046 465.965C213.955 466.107 213.836 466.23 213.697 466.325Z" fill="white"/>
<path d="M261.214 540.277C250.445 540.277 251.197 540.115 245.119 539.908C239.926 539.717 238.732 540.366 234.557 540.277C231.075 540.203 230.898 536.869 231.606 533.034C231.975 531.101 232.595 528.756 233.082 525.658H249.456C250.946 527.948 252.928 529.877 255.258 531.304C257.588 532.731 260.208 533.619 262.925 533.904C268.781 534.657 265.536 540.277 261.214 540.277Z" fill="#0B56A4"/>
<path d="M282.707 244.249C282.707 244.249 265.772 337.481 259.561 379.746C253.056 424.12 245.016 496.154 249.441 525.643C247.052 527.118 238.171 527.192 233.067 525.643C233.067 525.643 207.177 424.43 228.803 381.708C216.5 277.839 234.704 272.44 239.72 244.249H282.707Z" fill="#263238"/>
<path d="M250.12 519.492C250.345 521.537 250.72 523.564 251.241 525.555C251.293 525.702 251.315 525.858 251.304 526.014C251.293 526.169 251.251 526.321 251.179 526.459C251.107 526.598 251.007 526.72 250.886 526.818C250.765 526.916 250.624 526.988 250.474 527.03C250.42 527.038 250.366 527.038 250.312 527.03C244.411 527.989 235.56 526.602 232.801 526.101C232.541 526.044 232.3 525.919 232.106 525.737C231.911 525.555 231.769 525.324 231.695 525.068L230.293 519.388C230.241 519.243 230.218 519.089 230.227 518.935C230.236 518.781 230.276 518.63 230.345 518.492C230.414 518.354 230.51 518.232 230.628 518.132C230.746 518.032 230.883 517.958 231.031 517.913C231.163 517.899 231.297 517.899 231.429 517.913L248.778 518.238C249.11 518.264 249.424 518.403 249.668 518.63C249.912 518.858 250.071 519.162 250.12 519.492Z" fill="#0B56A4"/>
<path opacity="0.3" d="M250.12 519.492C250.345 521.537 250.72 523.564 251.241 525.555C251.293 525.702 251.315 525.858 251.304 526.014C251.293 526.169 251.251 526.321 251.179 526.459C251.107 526.598 251.007 526.72 250.886 526.818C250.765 526.916 250.624 526.988 250.474 527.03C250.42 527.038 250.366 527.038 250.312 527.03C244.411 527.989 235.56 526.602 232.801 526.101C232.541 526.044 232.3 525.919 232.106 525.737C231.911 525.555 231.769 525.324 231.695 525.068L230.293 519.388C230.241 519.243 230.218 519.089 230.227 518.935C230.236 518.781 230.276 518.63 230.345 518.492C230.414 518.354 230.51 518.232 230.628 518.132C230.746 518.032 230.883 517.958 231.031 517.913C231.163 517.899 231.297 517.899 231.429 517.913L248.778 518.238C249.11 518.264 249.424 518.403 249.668 518.63C249.912 518.858 250.071 519.162 250.12 519.492Z" fill="white"/>
<path d="M284.197 162.582C294.937 164.603 297.208 168.999 305.116 185.3C302.726 196.039 289.891 205.466 289.891 205.466C289.891 205.466 266.48 176.449 284.197 162.582Z" fill="white"/>
<path d="M239.72 244.249C229.644 257.998 218.669 279.963 218.58 327.17C270.95 350.773 295.866 350.773 308.317 344.872C299.333 308.464 297.99 244.249 297.99 244.249C289.626 235.044 239.72 244.249 239.72 244.249Z" fill="#0B56A4"/>
<path opacity="0.2" d="M275.036 285.702C270.448 302.667 275.154 319.632 279.196 323.393C276.423 313.598 275.036 285.702 275.036 285.702Z" fill="black"/>
<path d="M301.221 182.925C301.398 188.649 300.837 195.567 299.554 209.198C298.684 220.734 301.56 242.67 297.931 244.278C288.756 246.845 264.666 245.665 239.72 244.278C238.555 227.756 238.982 216.368 228.538 179.488C227.421 176.07 227.707 172.349 229.334 169.142C230.961 165.936 233.795 163.507 237.212 162.39C238.17 162.078 239.159 161.875 240.163 161.785C242.479 161.549 244.927 161.343 247.435 161.225C256.231 160.59 265.061 160.59 273.856 161.225C276.733 161.49 279.757 161.844 282.56 162.242C287.586 162.99 292.197 165.462 295.601 169.235C299.006 173.009 300.992 177.848 301.221 182.925Z" fill="white"/>
<path d="M256.788 135.645C258.263 144.334 254.383 155.604 248.851 161.269C248.851 161.269 256.906 160.059 274.004 170.636C278.96 163.541 275.287 161.269 275.287 161.269C270.699 160.384 270.699 157.035 272.499 150.574L256.788 135.645Z" fill="#FFB573"/>
<path d="M270.419 168.497C264.784 169.294 263.043 177.806 263.043 177.806C263.043 177.806 249.515 168.232 245.237 161.49C246.938 160.53 248.588 159.481 250.179 158.348C250.179 158.348 267.129 165.222 270.419 168.497Z" fill="#0B56A4"/>
<path d="M275.774 167.583C275.774 167.583 280.199 168.556 282.486 174.782C283.769 162.375 277.898 161.239 277.898 161.239C277.158 160.713 276.317 160.347 275.428 160.165C274.539 159.982 273.622 159.986 272.735 160.177C277.205 162.537 275.774 167.583 275.774 167.583Z" fill="#0B56A4"/>
<path opacity="0.2" d="M272.499 150.559L263.279 141.796C263.441 143.271 263.692 145.115 264.031 146.9C265.083 151.468 267.756 155.499 271.555 158.245C271.112 156.474 271.555 153.952 272.499 150.559Z" fill="black"/>
<path d="M260.358 115.7C256.744 129.198 254.929 134.878 259.148 144.142C265.492 158.171 282.368 160.369 289.803 148.494C296.515 137.739 301.295 117.514 290.496 107.277C288.253 105.005 285.443 103.375 282.357 102.555C279.271 101.736 276.022 101.757 272.948 102.616C269.873 103.476 267.084 105.142 264.87 107.443C262.656 109.743 261.098 112.594 260.358 115.7Z" fill="#FFB573"/>
<path d="M265.802 102.556C267.896 118.695 289.139 109.283 302.047 127.974C300.823 112.041 285.186 89.4266 265.802 102.556Z" fill="#263238"/>
<path d="M267.129 101.951C285.274 114.077 265.418 123.902 252.008 123.179C247.583 109.784 267.129 101.951 267.129 101.951Z" fill="#263238"/>
<path opacity="0.2" d="M276.29 125.849C275.727 125.119 275.025 124.508 274.225 124.05C273.425 123.592 272.543 123.296 271.629 123.179C272.999 124.356 274.581 125.263 276.29 125.849Z" fill="black"/>
<path opacity="0.2" d="M275.582 126.867C274.94 126.326 274.188 125.931 273.378 125.71C272.568 125.488 271.719 125.445 270.891 125.584C272.347 126.338 273.945 126.775 275.582 126.867Z" fill="black"/>
<path d="M278.975 127.162C278.621 128.283 278.901 129.419 279.595 129.685C280.288 129.95 281.144 129.272 281.498 128.21C281.852 127.147 281.571 125.967 280.878 125.687C280.185 125.407 279.329 126.056 278.975 127.162Z" fill="#263238"/>
<path d="M291.986 132.488C291.632 133.609 291.913 134.73 292.606 135.01C293.299 135.291 294.081 134.597 294.494 133.535C294.907 132.473 294.568 131.278 293.875 131.013C293.181 130.747 292.326 131.367 291.986 132.488Z" fill="#263238"/>
<path d="M293.565 130.894L296.353 131.116C296.353 131.116 294.376 132.768 293.565 130.894Z" fill="#263238"/>
<path d="M287.767 132.901C287.889 135.829 288.385 138.729 289.242 141.531C288.559 141.722 287.841 141.756 287.143 141.628C286.446 141.5 285.786 141.214 285.215 140.793L287.767 132.901Z" fill="#ED893E"/>
<path d="M277.869 142.534C278.416 142.872 278.994 143.158 279.595 143.389C279.63 143.407 279.669 143.416 279.709 143.418C279.748 143.42 279.788 143.414 279.825 143.4C279.862 143.387 279.896 143.365 279.925 143.338C279.954 143.311 279.977 143.278 279.993 143.242C280.022 143.156 280.017 143.062 279.978 142.979C279.94 142.897 279.871 142.833 279.786 142.799C278.425 142.269 277.2 141.439 276.201 140.372C275.203 139.305 274.457 138.027 274.018 136.633C273.997 136.547 273.945 136.472 273.871 136.423C273.797 136.374 273.708 136.354 273.62 136.367C273.535 136.398 273.464 136.458 273.421 136.537C273.378 136.616 273.364 136.707 273.384 136.795C274.132 139.189 275.726 141.229 277.869 142.534Z" fill="#263238"/>
<path d="M253.734 124.684C253.706 126.018 253.954 127.343 254.461 128.576C254.969 129.81 255.726 130.926 256.685 131.853C259.178 134.022 262.04 131.337 262.689 127.59C263.294 124.212 262.689 119.004 259.547 118.34C256.404 117.677 253.734 121.084 253.734 124.684Z" fill="#FFB573"/>
<path d="M278.577 119.86C278.664 119.883 278.755 119.887 278.844 119.872C278.933 119.856 279.018 119.822 279.093 119.771C279.781 119.306 280.572 119.016 281.398 118.929C282.224 118.841 283.059 118.958 283.828 119.27C283.903 119.308 283.984 119.331 284.068 119.337C284.151 119.344 284.235 119.334 284.315 119.308C284.394 119.282 284.468 119.24 284.531 119.186C284.595 119.131 284.646 119.064 284.684 118.99C284.747 118.816 284.744 118.626 284.676 118.455C284.608 118.283 284.48 118.143 284.315 118.06C283.348 117.648 282.294 117.484 281.247 117.585C280.201 117.685 279.196 118.046 278.326 118.636C278.182 118.744 278.084 118.904 278.054 119.083C278.024 119.261 278.063 119.444 278.164 119.594C278.264 119.73 278.411 119.825 278.577 119.86Z" fill="#263238"/>
<path d="M298.226 127.915C298.302 127.951 298.386 127.97 298.47 127.97C298.554 127.97 298.637 127.951 298.713 127.915C298.795 127.878 298.868 127.826 298.929 127.76C298.991 127.695 299.038 127.619 299.07 127.535C299.101 127.452 299.116 127.363 299.113 127.273C299.11 127.184 299.09 127.096 299.053 127.015C298.658 125.985 298.033 125.061 297.225 124.311C296.416 123.562 295.447 123.008 294.391 122.692C294.23 122.657 294.063 122.687 293.924 122.776C293.786 122.864 293.689 123.004 293.653 123.164C293.626 123.345 293.666 123.53 293.767 123.683C293.868 123.835 294.022 123.945 294.199 123.991C295.03 124.257 295.79 124.707 296.424 125.307C297.057 125.907 297.547 126.642 297.858 127.457C297.884 127.555 297.93 127.646 297.993 127.725C298.057 127.804 298.136 127.868 298.226 127.915Z" fill="#263238"/>
<path d="M280.539 125.569L283.342 125.805C283.342 125.805 281.365 127.383 280.539 125.569Z" fill="#263238"/>
<path d="M237.227 183.854L232.801 193C231.326 196.084 229.851 199.181 228.508 202.265C227.166 205.348 225.838 208.46 224.702 211.514C223.594 214.404 222.668 217.36 221.929 220.365L221.649 216.722C221.775 217.351 222.037 217.945 222.416 218.462C223.026 219.445 223.733 220.364 224.525 221.206C226.366 223.258 228.337 225.19 230.426 226.989C232.58 228.907 234.852 230.78 237.212 232.639C239.572 234.498 241.992 236.342 244.308 238.141L244.455 238.245C245.303 238.879 245.896 239.796 246.126 240.829C246.356 241.863 246.207 242.945 245.707 243.878C245.208 244.812 244.39 245.535 243.402 245.917C242.414 246.299 241.323 246.314 240.325 245.96C237.26 244.913 234.251 243.706 231.311 242.346C228.349 240.986 225.459 239.474 222.652 237.817C219.688 236.083 216.871 234.109 214.228 231.916C212.757 230.668 211.386 229.307 210.127 227.845C208.514 225.989 207.254 223.855 206.41 221.545C206.057 220.574 205.936 219.533 206.056 218.507V217.887C206.576 213.929 207.425 210.021 208.593 206.203C209.641 202.515 210.894 199.019 212.237 195.552C213.579 192.086 215.04 188.722 216.559 185.388C218.079 182.054 219.687 178.838 221.56 175.49C222.679 173.472 224.542 171.971 226.751 171.306C228.961 170.641 231.342 170.865 233.389 171.931C235.435 172.997 236.985 174.819 237.707 177.01C238.43 179.202 238.268 181.589 237.256 183.662L237.227 183.854Z" fill="#FFB573"/>
<path d="M239.602 161.874C230.013 161.874 225.809 164.116 215.217 181.715C217.577 189.283 232.772 198.547 232.772 198.547C232.772 198.547 249.161 177.422 239.602 161.874Z" fill="white"/>
<path d="M255.608 249.987L255.121 245.68C255.026 244.879 254.743 244.113 254.294 243.444C253.845 242.774 253.244 242.221 252.539 241.829L245.857 238.127C244.542 237.399 243.072 236.998 241.571 236.957C240.069 236.916 238.579 237.236 237.227 237.891L235.516 238.702C235.855 245.916 241.52 253.454 241.52 253.454L242.906 255.785C243.453 256.76 244.363 257.48 245.438 257.786C246.513 258.093 247.666 257.962 248.645 257.422L253.292 254.752C254.099 254.269 254.749 253.561 255.16 252.715C255.571 251.869 255.727 250.921 255.608 249.987Z" fill="#FFB573"/>
<path d="M330.179 223.331H279.609C279.365 223.34 279.122 223.302 278.892 223.218C278.663 223.133 278.453 223.005 278.273 222.839C278.094 222.673 277.949 222.473 277.846 222.251C277.744 222.03 277.686 221.79 277.677 221.546C277.676 221.331 277.706 221.117 277.765 220.911L284.905 191.053C285.084 190.392 285.464 189.802 285.993 189.366C286.521 188.93 287.172 188.669 287.856 188.619H338.426C338.67 188.609 338.913 188.648 339.143 188.732C339.372 188.816 339.582 188.945 339.762 189.111C339.941 189.277 340.087 189.476 340.189 189.698C340.291 189.92 340.349 190.16 340.358 190.404C340.373 190.624 340.343 190.845 340.27 191.053L333.115 220.911C332.942 221.572 332.566 222.162 332.039 222.596C331.512 223.03 330.861 223.287 330.179 223.331Z" fill="#0B56A4"/>
<path d="M279.801 220.926C279.754 220.915 279.709 220.896 279.669 220.868C279.629 220.84 279.595 220.804 279.569 220.763C279.543 220.722 279.525 220.676 279.517 220.628C279.509 220.58 279.51 220.531 279.521 220.483L286.189 192.632C286.384 191.878 286.817 191.208 287.422 190.719C288.028 190.23 288.775 189.949 289.552 189.917H337.688C337.786 189.917 337.88 189.956 337.949 190.025C338.018 190.094 338.057 190.188 338.057 190.286C338.057 190.384 338.018 190.478 337.949 190.547C337.88 190.616 337.786 190.655 337.688 190.655H289.479C288.869 190.693 288.286 190.919 287.811 191.302C287.335 191.685 286.99 192.206 286.823 192.794L280.17 220.646C280.147 220.726 280.099 220.797 280.033 220.848C279.966 220.898 279.885 220.926 279.801 220.926Z" fill="white"/>
<path d="M338.013 197.47L337.349 197.78C336.327 198.242 335.445 198.965 334.793 199.877C334.14 200.789 333.739 201.857 333.631 202.973L333.233 209.272C333.184 209.851 333.25 210.434 333.427 210.988C333.604 211.542 333.888 212.055 334.264 212.499C334.639 212.943 335.098 213.308 335.615 213.575C336.132 213.841 336.696 214.003 337.275 214.052H338.16C338.882 214.009 339.563 213.704 340.074 213.192C340.586 212.681 340.891 212 340.933 211.278L341.435 199.757C341.484 199.134 341.286 198.516 340.882 198.038C340.479 197.561 339.904 197.261 339.281 197.205C338.842 197.181 338.405 197.272 338.013 197.47Z" fill="#FFB573"/>
<path d="M492.82 468.583C487.981 446.956 497.644 395.073 501.671 383.331C505.699 371.588 533.654 357.544 550.618 349.947C567.583 342.35 598.651 363.032 598.651 363.032C598.651 363.032 566.403 359.654 557.139 364.271C547.875 368.889 528.122 383.036 521.734 395.162C515.346 407.288 493.853 443.209 492.82 468.583Z" fill="#263238"/>
<path d="M433.915 385.19C456.117 387.52 474.321 402.7 480.104 407.318C485.887 411.935 488.188 430.508 489.044 441.586C489.899 452.665 472.064 466.09 472.064 466.09C472.064 466.09 480.473 448.623 479.735 442.486C478.998 436.35 475 422.394 469.409 416.302C463.818 410.209 451.706 394.203 433.915 385.19Z" fill="#263238"/>
<path d="M486.669 454.553C488.749 424.253 474.262 404.293 476.342 380.307C478.422 356.32 505.448 302.8 507.793 287.664C512.219 301.059 492.732 365.481 493.587 382.947C494.443 400.414 503.633 435.656 486.669 454.553Z" fill="#0B56A4"/>
<path opacity="0.6" d="M486.669 454.553C488.749 424.253 474.262 404.293 476.342 380.307C478.422 356.32 505.448 302.8 507.793 287.664C512.219 301.059 492.732 365.481 493.587 382.947C494.443 400.414 503.633 435.656 486.669 454.553Z" fill="white"/>
<path d="M464.541 337.068C468.169 337.667 471.556 339.274 474.316 341.705C477.076 344.136 479.097 347.293 480.148 350.817C477.75 353.691 474.625 355.869 471.099 357.125C467.573 358.381 463.775 358.668 460.1 357.957C450.246 356.128 446.823 350.581 448.018 344.872C449.213 339.163 454.686 335.239 464.541 337.068Z" fill="#0B56A4"/>
<path d="M495.298 352.116C494.242 354.307 492.593 356.159 490.539 357.463C488.485 358.766 486.107 359.469 483.674 359.492C482.283 357.436 481.467 355.046 481.309 352.57C481.151 350.093 481.656 347.619 482.774 345.403C485.724 339.503 489.885 338.249 493.336 340.078C496.788 341.907 498.264 346.156 495.298 352.116Z" fill="#0B56A4"/>
<path d="M488.631 403.29C490.388 404.985 491.633 407.139 492.226 409.508C492.818 411.876 492.732 414.363 491.979 416.685C489.584 417.346 487.055 417.354 484.656 416.708C482.256 416.062 480.074 414.786 478.334 413.012C473.642 408.306 473.819 403.998 476.667 401.314C479.514 398.629 483.939 398.57 488.631 403.29Z" fill="#0B56A4"/>
<path d="M500.476 430.965C499.307 431.918 497.893 432.524 496.397 432.715C494.9 432.905 493.38 432.672 492.009 432.042C491.777 430.525 491.955 428.974 492.526 427.549C493.097 426.125 494.039 424.88 495.254 423.943C498.485 421.406 501.155 421.819 502.556 423.766C503.958 425.713 503.707 428.428 500.476 430.965Z" fill="#0B56A4"/>
<path d="M509.682 388.892C507.46 391.489 504.552 393.407 501.291 394.427C498.03 395.447 494.547 395.528 491.242 394.66C490.119 391.38 489.894 387.86 490.592 384.464C491.29 381.068 492.885 377.921 495.21 375.35C501.376 368.431 507.395 368.328 511.437 372.06C515.479 375.793 515.848 382.003 509.682 388.892Z" fill="#0B56A4"/>
<path d="M487.922 455.557H487.775C487.584 455.521 487.414 455.411 487.304 455.25C487.193 455.09 487.15 454.893 487.185 454.701C497.659 400.001 487.937 352.499 458.286 313.524C458.15 313.384 458.073 313.196 458.073 313.001C458.073 312.805 458.15 312.617 458.286 312.477C458.353 312.408 458.433 312.354 458.522 312.316C458.611 312.279 458.706 312.26 458.802 312.26C458.898 312.26 458.993 312.279 459.082 312.316C459.171 312.354 459.251 312.408 459.318 312.477V312.551C489.235 351.88 499.06 399.765 488.512 454.908C488.497 455.065 488.431 455.212 488.324 455.329C488.218 455.446 488.077 455.526 487.922 455.557Z" fill="#263238"/>
<path d="M461.738 296.515C464.407 299.864 466.081 303.895 466.569 308.15C467.057 312.404 466.339 316.71 464.496 320.576C460.181 321.182 455.782 320.622 451.756 318.954C447.73 317.286 444.224 314.571 441.601 311.09C434.52 301.826 435.833 294.376 441.38 290.349C446.927 286.322 454.627 287.222 461.738 296.515Z" fill="#0B56A4"/>
<path d="M455.904 455.626L454.282 478.819L455.753 478.922L457.375 455.729L455.904 455.626Z" fill="#0B56A4"/>
<path d="M453.571 486.934L452.879 496.818L454.354 496.922L455.046 487.038L453.571 486.934Z" fill="#0B56A4"/>
<path d="M525.673 439.359H461.162L454.494 532.96H532.355L525.673 439.359Z" fill="#0B56A4"/>
<path d="M541.811 521.808C534.646 521.808 527.641 519.683 521.683 515.702C515.725 511.721 511.081 506.062 508.338 499.442C505.596 492.822 504.879 485.537 506.277 478.509C507.675 471.48 511.125 465.025 516.192 459.958C521.259 454.891 527.715 451.44 534.743 450.042C541.771 448.644 549.056 449.362 555.676 452.104C562.297 454.846 567.955 459.49 571.936 465.448C575.918 471.406 578.042 478.411 578.042 485.577C578.031 495.182 574.21 504.391 567.418 511.183C560.626 517.975 551.417 521.796 541.811 521.808ZM541.811 452.296C535.229 452.296 528.795 454.248 523.322 457.905C517.849 461.562 513.583 466.76 511.064 472.841C508.545 478.922 507.886 485.614 509.17 492.07C510.455 498.525 513.624 504.455 518.279 509.11C522.933 513.764 528.863 516.934 535.319 518.218C541.775 519.502 548.466 518.843 554.547 516.324C560.629 513.805 565.826 509.539 569.483 504.067C573.14 498.594 575.092 492.159 575.092 485.577C575.076 476.755 571.565 468.299 565.327 462.061C559.089 455.823 550.633 452.312 541.811 452.296Z" fill="#0B56A4"/>
</svg>
