<svg width="32" height="32" viewBox="0 0 32 32" fill="none" xmlns="http://www.w3.org/2000/svg">
<path d="M15.9993 5C14.6733 5 13.4015 5.52678 12.4638 6.46447C11.5261 7.40215 10.9993 8.67392 10.9993 10C10.9993 11.3261 11.5261 12.5979 12.4638 13.5355C13.4015 14.4732 14.6733 15 15.9993 15C17.3254 15 18.5972 14.4732 19.5349 13.5355C20.4726 12.5979 20.9993 11.3261 20.9993 10C20.9993 8.67392 20.4726 7.40215 19.5349 6.46447C18.5972 5.52678 17.3254 5 15.9993 5ZM10.666 17.6667C9.33993 17.6667 8.06816 18.1934 7.13048 19.1311C6.1928 20.0688 5.66602 21.3406 5.66602 22.6667V24.2507C5.66602 25.256 6.39402 26.112 7.38602 26.2733C13.09 27.2053 18.9087 27.2053 24.6127 26.2733C25.0924 26.1944 25.5286 25.9478 25.8436 25.5774C26.1586 25.207 26.3319 24.7369 26.3327 24.2507V22.6667C26.3327 21.3406 25.8059 20.0688 24.8682 19.1311C23.9305 18.1934 22.6588 17.6667 21.3327 17.6667H20.8793C20.6305 17.6676 20.3887 17.7058 20.154 17.7813L18.9993 18.1587C17.05 18.7951 14.9487 18.7951 12.9993 18.1587L11.8447 17.7813C11.6106 17.7063 11.3665 17.6676 11.1207 17.6667H10.666Z" fill="#25343F"/>
</svg>
